<svg xmlns="http://www.w3.org/2000/svg" viewBox="0 0 512 512" width="512" height="512">
  <defs>
    <linearGradient id="bg" x1="0%" y1="0%" x2="100%" y2="100%">
      <stop offset="0%" stop-color="#18181b"/>
      <stop offset="100%" stop-color="#09090b"/>
    </linearGradient>
    <linearGradient id="flame" x1="0%" y1="100%" x2="0%" y2="0%">
      <stop offset="0%" stop-color="#ea580c"/>
      <stop offset="50%" stop-color="#f97316"/>
      <stop offset="100%" stop-color="#fdba74"/>
    </linearGradient>
    <filter id="glow" x="-20%" y="-20%" width="140%" height="140%">
      <feGaussianBlur stdDeviation="16" result="blur"/>
      <feComposite in="SourceGraphic" in2="blur" operator="over"/>
    </filter>
  </defs>
  
  <!-- Fondo redondeado -->
  <rect width="512" height="512" rx="112" fill="url(#bg)"/>
  
  <!-- Borde sutil -->
  <rect width="504" height="504" x="4" y="4" rx="108" fill="none" stroke="#f97316" stroke-width="6" stroke-opacity="0.3"/>
  
  <!-- Llama de Aval Motors (Flame) -->
  <g transform="translate(106, 86) scale(12.5)" filter="url(#glow)">
    <path 
      d="M8.5 14.5A2.5 2.5 0 0 0 11 12c0-1.38-.5-2-1-3-1.072-2.143-.224-4.054 2-6 .5 2.5 2 4.9 4 6.5 2 1.6 3 3.5 3 5.5a7 7 0 1 1-14 0c0-1.153.433-2.294 1-3a2.5 2.5 0 0 0 2.5 2.5z" 
      fill="url(#flame)"
    />
  </g>
</svg>
